{"asset":{"version":"2.0","generator":"VECTARY"},"nodes":[{"translation":[0,0.286,-0.0019999999999999432],"scale":[0.0018000000000000002,0.002,0.00028000000000000003],"rotation":[-0.7071067811865475,0,0,0.7071067811865476],"name":"Polyhedron","mesh":0},{"translation":[0,0.013000000000000001,2.6645352591003758e-18],"scale":[0.0017,0.0017,0.00017],"rotation":[-0.7071067811865475,0,0,0.7071067811865476],"name":"Cylinder","mesh":1},{"translation":[0,0.028000000000000008,3.552713678800501e-18],"scale":[0.0014,0.0014,0.00017],"rotation":[-0.7071067811865475,0,0,0.7071067811865476],"name":"Cylinder 3","mesh":2},{"translation":[0,0.2700000000000001,5.684341886080802e-17],"scale":[0.0014,0.0014,0.00017],"rotation":[-0.7071067811865475,0,0,0.7071067811865476],"name":"Cylinder 4","mesh":3},{"translation":[0,1.3322676295501879e-18,-0.0075],"scale":[0.001,0.001,0.001],"rotation":[-0.7071067811865475,0,0,0.7071067811865476],"name":"Group","children":[5,6,7]},{"translation":[0,-7.5,0],"scale":[2,2,0.15],"rotation":[0,0,0,1],"name":"Box","mesh":4},{"translation":[0,-7.5,285],"scale":[2,2,0.15],"rotation":[0,0,0,1],"name":"Box 2","mesh":5},{"translation":[0,92.5,0],"scale":[2,0.3,3],"rotation":[0,0,0,1],"name":"Box 1","mesh":6},{"translation":[-0.07,1.4210854715202004e-17,-0.0865771488586748],"scale":[0.00015,0.00015,0.0029],"rotation":[-0.7071067811865475,0,0,0.7071067811865476],"name":"Cylinder 1","mesh":7},{"translation":[0.06999999999999999,1.4210854715202004e-17,-0.086577149],"scale":[0.00015,0.00015,0.0029],"rotation":[-0.7071067811865475,0,0,0.7071067811865476],"name":"Cylinder 2","mesh":8},{"translation":[0,0.045,7.105427357601002e-18],"scale":[0.001,0.001,0.0022500000000000007],"rotation":[-0.7071067811865475,0,0,0.7071067811865476],"name":"Tube","mesh":9},{"translation":[0,0.045,7.105427357601002e-18],"scale":[0.001,0.001,0.0022500000000000007],"rotation":[-0.7071067811865475,0,0,0.7071067811865476],"name":"Tube 1","mesh":10}],"materials":[{"pbrMetallicRoughness":{"baseColorFactor":[1,1,1,0.3],"metallicFactor":0,"roughnessFactor":0.5},"name":"Glass","emissiveFactor":[0.2,0.2,0.2],"extensions":{"KHR_materials_transmission":{"transmissionFactor":1},"KHR_materials_ior":{"ior":1.5},"KHR_materials_volume":{"thicknessFactor":0.01,"attenuationDistance":0.02,"attenuationColor":[0.6274509803921569,0.027450980392156862,0.9294117647058824]}},"alphaMode":"BLEND","doubleSided":false},{"pbrMetallicRoughness":{"baseColorFactor":[0.051122050056493396,0.0016869153167892836,0.24680041960155044,1],"metallicFactor":0.17,"roughnessFactor":0.2},"name":"Berlin","emissiveFactor":[0.08,0.08,0.08],"extensions":{},"alphaMode":"OPAQUE","doubleSided":false},{"pbrMetallicRoughness":{"baseColorFactor":[0.42050792616758714,0.1904628788224093,1,1],"metallicRoughnessTexture":{"index":1,"extensions":{"KHR_texture_transform":{"offset":[0,0],"scale":[1,1],"rotation":0}},"texCoord":0},"metallicFactor":0,"roughnessFactor":1},"name":"Subsurface Textured","normalTexture":{"index":0,"scale":1,"extensions":{"KHR_texture_transform":{"offset":[0,0],"scale":[1,1],"rotation":0}},"texCoord":0},"emissiveFactor":[0.03,0.03,0.03],"extensions":{},"alphaMode":"OPAQUE","doubleSided":false},{"pbrMetallicRoughness":{"baseColorFactor":[0,0,0,1],"metallicRoughnessTexture":{"index":3,"extensions":{"KHR_texture_transform":{"offset":[0,0],"scale":[1,1],"rotation":0}},"texCoord":0},"metallicFactor":0,"roughnessFactor":1},"name":"Plastic Textured","normalTexture":{"index":2,"scale":1,"extensions":{"KHR_texture_transform":{"offset":[0,0],"scale":[1,1],"rotation":0}},"texCoord":0},"emissiveFactor":[0,0,0],"extensions":{},"alphaMode":"OPAQUE","doubleSided":false},{"pbrMetallicRoughness":{"baseColorFactor":[1,1,1,0.39],"metallicRoughnessTexture":{"index":4,"extensions":{"KHR_texture_transform":{"offset":[5,-5],"scale":[10,10],"rotation":0}},"texCoord":0},"metallicFactor":0,"roughnessFactor":1},"name":"Squares","emissiveTexture":{"index":5,"extensions":{"KHR_texture_transform":{"offset":[5,-5],"scale":[10,10],"rotation":0}},"texCoord":0},"emissiveFactor":[0.2,0.2,0.2],"extensions":{"KHR_materials_transmission":{"transmissionFactor":1},"KHR_materials_ior":{"ior":1.5},"KHR_materials_volume":{"thicknessFactor":0.01,"attenuationDistance":0.01,"attenuationColor":[1,1,1]}},"alphaMode":"BLEND","doubleSided":false},{"pbrMetallicRoughness":{"baseColorFactor":[1,1,1,0.3],"metallicFactor":0,"roughnessFactor":0.5},"name":"Glass 1","emissiveFactor":[0.05,0.05,0.05],"extensions":{"KHR_materials_transmission":{"transmissionFactor":1},"KHR_materials_ior":{"ior":1.5},"KHR_materials_volume":{"thicknessFactor":0.01,"attenuationDistance":0.02,"attenuationColor":[0.6274509803921569,0.027450980392156862,0.9294117647058824]}},"alphaMode":"BLEND","doubleSided":false}],"meshes":[{"primitives":[{"mode":4,"attributes":{"POSITION":1,"NORMAL":2,"TEXCOORD_0":3},"material":0,"indices":0}]},{"primitives":[{"mode":4,"attributes":{"POSITION":5,"NORMAL":6,"TEXCOORD_0":7},"material":1,"indices":4}]},{"primitives":[{"mode":4,"attributes":{"POSITION":9,"NORMAL":10,"TEXCOORD_0":11},"material":2,"indices":8}]},{"primitives":[{"mode":4,"attributes":{"POSITION":13,"NORMAL":14,"TEXCOORD_0":15},"material":2,"indices":12}]},{"primitives":[{"mode":4,"attributes":{"POSITION":17,"NORMAL":18,"TEXCOORD_0":19},"material":3,"indices":16}]},{"primitives":[{"mode":4,"attributes":{"POSITION":21,"NORMAL":22,"TEXCOORD_0":23},"material":3,"indices":20}]},{"primitives":[{"mode":4,"attributes":{"POSITION":25,"NORMAL":26,"TEXCOORD_0":27},"material":3,"indices":24}]},{"primitives":[{"mode":4,"attributes":{"POSITION":29,"NORMAL":30,"TEXCOORD_0":31},"material":0,"indices":28}]},{"primitives":[{"mode":4,"attributes":{"POSITION":33,"NORMAL":34,"TEXCOORD_0":35},"material":0,"indices":32}]},{"primitives":[{"mode":4,"attributes":{"POSITION":37,"NORMAL":38,"TEXCOORD_0":39},"material":4,"indices":36}]},{"primitives":[{"mode":4,"attributes":{"POSITION":41,"NORMAL":42,"TEXCOORD_0":43},"material":5,"indices":40}]}],"accessors":[{"bufferView":0,"byteOffset":0,"componentType":5125,"count":240,"type":"SCALAR"},{"bufferView":1,"byteOffset":0,"componentType":5126,"count":57,"max":[50,50,100],"min":[-50,-50,0],"type":"VEC3"},{"bufferView":2,"byteOffset":0,"componentType":5126,"count":57,"type":"VEC3"},{"bufferView":3,"byteOffset":0,"componentType":5126,"count":57,"type":"VEC2"},{"bufferView":4,"byteOffset":0,"componentType":5125,"count":6912,"type":"SCALAR"},{"bufferView":5,"byteOffset":0,"componentType":5126,"count":1302,"max":[50,50,100],"min":[-50,-50,0],"type":"VEC3"},{"bufferView":6,"byteOffset":0,"componentType":5126,"count":1302,"type":"VEC3"},{"bufferView":7,"byteOffset":0,"componentType":5126,"count":1302,"type":"VEC2"},{"bufferView":8,"byteOffset":0,"componentType":5125,"count":768,"type":"SCALAR"},{"bufferView":9,"byteOffset":0,"componentType":5126,"count":260,"max":[50,50,100],"min":[-50,-50,0],"type":"VEC3"},{"bufferView":10,"byteOffset":0,"componentType":5126,"count":260,"type":"VEC3"},{"bufferView":11,"byteOffset":0,"componentType":5126,"count":260,"type":"VEC2"},{"bufferView":12,"byteOffset":0,"componentType":5125,"count":768,"type":"SCALAR"},{"bufferView":13,"byteOffset":0,"componentType":5126,"count":260,"max":[50,50,100],"min":[-50,-50,0],"type":"VEC3"},{"bufferView":14,"byteOffset":0,"componentType":5126,"count":260,"type":"VEC3"},{"bufferView":15,"byteOffset":0,"componentType":5126,"count":260,"type":"VEC2"},{"bufferView":16,"byteOffset":0,"componentType":5125,"count":2916,"type":"SCALAR"},{"bufferView":17,"byteOffset":0,"componentType":5126,"count":596,"max":[50,50,100],"min":[-50,-50,0],"type":"VEC3"},{"bufferView":18,"byteOffset":0,"componentType":5126,"count":596,"type":"VEC3"},{"bufferView":19,"byteOffset":0,"componentType":5126,"count":596,"type":"VEC2"},{"bufferView":20,"byteOffset":0,"componentType":5125,"count":2916,"type":"SCALAR"},{"bufferView":21,"byteOffset":0,"componentType":5126,"count":596,"max":[50,50,100],"min":[-50,-50,0],"type":"VEC3"},{"bufferView":22,"byteOffset":0,"componentType":5126,"count":596,"type":"VEC3"},{"bufferView":23,"byteOffset":0,"componentType":5126,"count":596,"type":"VEC2"},{"bufferView":24,"byteOffset":0,"componentType":5125,"count":2916,"type":"SCALAR"},{"bufferView":25,"byteOffset":0,"componentType":5126,"count":596,"max":[50,50,100],"min":[-50,-50,0],"type":"VEC3"},{"bufferView":26,"byteOffset":0,"componentType":5126,"count":596,"type":"VEC3"},{"bufferView":27,"byteOffset":0,"componentType":5126,"count":596,"type":"VEC2"},{"bufferView":28,"byteOffset":0,"componentType":5125,"count":768,"type":"SCALAR"},{"bufferView":29,"byteOffset":0,"componentType":5126,"count":260,"max":[50,50,100],"min":[-50,-50,0],"type":"VEC3"},{"bufferView":30,"byteOffset":0,"componentType":5126,"count":260,"type":"VEC3"},{"bufferView":31,"byteOffset":0,"componentType":5126,"count":260,"type":"VEC2"},{"bufferView":32,"byteOffset":0,"componentType":5125,"count":768,"type":"SCALAR"},{"bufferView":33,"byteOffset":0,"componentType":5126,"count":260,"max":[50,50,100],"min":[-50,-50,0],"type":"VEC3"},{"bufferView":34,"byteOffset":0,"componentType":5126,"count":260,"type":"VEC3"},{"bufferView":35,"byteOffset":0,"componentType":5126,"count":260,"type":"VEC2"},{"bufferView":36,"byteOffset":0,"componentType":5125,"count":1536,"type":"SCALAR"},{"bufferView":37,"byteOffset":0,"componentType":5126,"count":520,"max":[50,50,100],"min":[-50,-50,0],"type":"VEC3"},{"bufferView":38,"byteOffset":0,"componentType":5126,"count":520,"type":"VEC3"},{"bufferView":39,"byteOffset":0,"componentType":5126,"count":520,"type":"VEC2"},{"bufferView":40,"byteOffset":0,"componentType":5125,"count":1536,"type":"SCALAR"},{"bufferView":41,"byteOffset":0,"componentType":5126,"count":520,"max":[49,49,100],"min":[-49,-49,0],"type":"VEC3"},{"bufferView":42,"byteOffset":0,"componentType":5126,"count":520,"type":"VEC3"},{"bufferView":43,"byteOffset":0,"componentType":5126,"count":520,"type":"VEC2"}],"bufferViews":[{"buffer":0,"byteOffset":0,"byteLength":960,"target":34963},{"buffer":0,"byteOffset":960,"byteLength":684,"target":34962},{"buffer":0,"byteOffset":1644,"byteLength":684,"target":34962},{"buffer":0,"byteOffset":2328,"byteLength":456,"target":34962},{"buffer":0,"byteOffset":2784,"byteLength":27648,"target":34963},{"buffer":0,"byteOffset":30432,"byteLength":15624,"target":34962},{"buffer":0,"byteOffset":46056,"byteLength":15624,"target":34962},{"buffer":0,"byteOffset":61680,"byteLength":10416,"target":34962},{"buffer":0,"byteOffset":72096,"byteLength":3072,"target":34963},{"buffer":0,"byteOffset":75168,"byteLength":3120,"target":34962},{"buffer":0,"byteOffset":78288,"byteLength":3120,"target":34962},{"buffer":0,"byteOffset":81408,"byteLength":2080,"target":34962},{"buffer":0,"byteOffset":83488,"byteLength":3072,"target":34963},{"buffer":0,"byteOffset":86560,"byteLength":3120,"target":34962},{"buffer":0,"byteOffset":89680,"byteLength":3120,"target":34962},{"buffer":0,"byteOffset":92800,"byteLength":2080,"target":34962},{"buffer":0,"byteOffset":94880,"byteLength":11664,"target":34963},{"buffer":0,"byteOffset":106544,"byteLength":7152,"target":34962},{"buffer":0,"byteOffset":113696,"byteLength":7152,"target":34962},{"buffer":0,"byteOffset":120848,"byteLength":4768,"target":34962},{"buffer":0,"byteOffset":125616,"byteLength":11664,"target":34963},{"buffer":0,"byteOffset":137280,"byteLength":7152,"target":34962},{"buffer":0,"byteOffset":144432,"byteLength":7152,"target":34962},{"buffer":0,"byteOffset":151584,"byteLength":4768,"target":34962},{"buffer":0,"byteOffset":156352,"byteLength":11664,"target":34963},{"buffer":0,"byteOffset":168016,"byteLength":7152,"target":34962},{"buffer":0,"byteOffset":175168,"byteLength":7152,"target":34962},{"buffer":0,"byteOffset":182320,"byteLength":4768,"target":34962},{"buffer":0,"byteOffset":187088,"byteLength":3072,"target":34963},{"buffer":0,"byteOffset":190160,"byteLength":3120,"target":34962},{"buffer":0,"byteOffset":193280,"byteLength":3120,"target":34962},{"buffer":0,"byteOffset":196400,"byteLength":2080,"target":34962},{"buffer":0,"byteOffset":198480,"byteLength":3072,"target":34963},{"buffer":0,"byteOffset":201552,"byteLength":3120,"target":34962},{"buffer":0,"byteOffset":204672,"byteLength":3120,"target":34962},{"buffer":0,"byteOffset":207792,"byteLength":2080,"target":34962},{"buffer":0,"byteOffset":209872,"byteLength":6144,"target":34963},{"buffer":0,"byteOffset":216016,"byteLength":6240,"target":34962},{"buffer":0,"byteOffset":222256,"byteLength":6240,"target":34962},{"buffer":0,"byteOffset":228496,"byteLength":4160,"target":34962},{"buffer":0,"byteOffset":232656,"byteLength":6144,"target":34963},{"buffer":0,"byteOffset":238800,"byteLength":6240,"target":34962},{"buffer":0,"byteOffset":245040,"byteLength":6240,"target":34962},{"buffer":0,"byteOffset":251280,"byteLength":4160,"target":34962}],"textures":[{"sampler":0,"source":0},{"sampler":0,"source":1},{"sampler":0,"source":2},{"sampler":0,"source":3},{"sampler":0,"source":4},{"sampler":0,"source":5}],"images":[{"uri":"Plastic_009_NormalMap.jpg","mimeType":"image/jpeg"},{"uri":"metallicTexture&Plastic_009_Roughness.jpg","mimeType":"image/jpeg"},{"uri":"Plastic_002_NormalMap.jpg","mimeType":"image/jpeg"},{"uri":"metallicTexture&Plastic_002_Roughness.jpg","mimeType":"image/jpeg"},{"uri":"metallicTexture&etched-squares.jpg","mimeType":"image/jpeg"},{"uri":"etched-squares.jpg","mimeType":"image/jpeg"}],"samplers":[{"wrapS":10497,"wrapT":10497}],"scene":0,"scenes":[{"nodes":[0,1,2,3,4,8,9,10,11],"name":"Hologram"}],"extensionsUsed":["KHR_texture_transform","KHR_materials_ior","KHR_materials_volume","KHR_materials_transmission"],"buffers":[{"byteLength":255440,"uri":"Hologram.bin"}]}