{"asset":{"version":"2.0","generator":"VECTARY"},"nodes":[{"translation":[0.21847167828601086,0,0],"scale":[0.001,0.001,0.001],"rotation":[-0.7071067811865475,0,0,0.7071067811865476],"name":"Merged Objects","mesh":0},{"translation":[0,0,0],"scale":[0.001,0.001,0.001],"rotation":[-0.7071067811865475,0,0,0.7071067811865476],"name":"Merged Objects 1","mesh":1}],"materials":[{"pbrMetallicRoughness":{"baseColorFactor":[1,1,1,1],"baseColorTexture":{"index":0,"extensions":{"KHR_texture_transform":{"offset":[0,0],"scale":[1,1],"rotation":0}},"texCoord":0},"metallicRoughnessTexture":{"index":2,"extensions":{"KHR_texture_transform":{"offset":[0,0],"scale":[1,1],"rotation":0}},"texCoord":0},"metallicFactor":0,"roughnessFactor":1},"name":"Wood","normalTexture":{"index":1,"scale":1,"extensions":{"KHR_texture_transform":{"offset":[0,0],"scale":[1,1],"rotation":0}},"texCoord":0},"emissiveFactor":[0,0,0],"extensions":{},"alphaMode":"OPAQUE","doubleSided":false},{"pbrMetallicRoughness":{"baseColorFactor":[0.8512516451845149,0.8512516451845149,0.8512516451845149,1],"metallicRoughnessTexture":{"index":4,"extensions":{"KHR_texture_transform":{"offset":[0,0],"scale":[4,4],"rotation":0}},"texCoord":0},"metallicFactor":0,"roughnessFactor":1},"name":"Subsurface Textured","normalTexture":{"index":3,"scale":0.39,"extensions":{"KHR_texture_transform":{"offset":[0,0],"scale":[4,4],"rotation":0}},"texCoord":0},"emissiveFactor":[0,0,0],"extensions":{},"alphaMode":"OPAQUE","doubleSided":false}],"textures":[{"sampler":0,"source":0},{"sampler":0,"source":1},{"sampler":0,"source":2},{"sampler":0,"source":3},{"sampler":0,"source":4}],"images":[{"uri":"wood_Wood_006_Color_1.jpg","mimeType":"image/jpeg"},{"uri":"wood_Wood_006_NormalMap.jpg","mimeType":"image/jpeg"},{"uri":"metallicTexture&wood_Wood_006_Roughness_3.jpg","mimeType":"image/jpeg"},{"uri":"Plastic_009_NormalMap.jpg","mimeType":"image/jpeg"},{"uri":"metallicTexture&Plastic_009_Roughness.jpg","mimeType":"image/jpeg"}],"samplers":[{"wrapS":10497,"wrapT":10497}],"meshes":[{"primitives":[{"mode":4,"attributes":{"POSITION":1,"NORMAL":2,"TEXCOORD_0":3},"material":0,"indices":0}]},{"primitives":[{"mode":4,"attributes":{"POSITION":5,"NORMAL":6,"TEXCOORD_0":7},"material":1,"indices":4}]}],"accessors":[{"bufferView":0,"byteOffset":0,"componentType":5125,"count":13860,"type":"SCALAR"},{"bufferView":1,"byteOffset":0,"componentType":5126,"count":2756,"max":[60,35,80],"min":[-60,-35,0],"type":"VEC3"},{"bufferView":2,"byteOffset":0,"componentType":5126,"count":2756,"type":"VEC3"},{"bufferView":3,"byteOffset":0,"componentType":5126,"count":2756,"type":"VEC2"},{"bufferView":4,"byteOffset":0,"componentType":5125,"count":13860,"type":"SCALAR"},{"bufferView":5,"byteOffset":0,"componentType":5126,"count":2756,"max":[60,35,80],"min":[-60,-35,0],"type":"VEC3"},{"bufferView":6,"byteOffset":0,"componentType":5126,"count":2756,"type":"VEC3"},{"bufferView":7,"byteOffset":0,"componentType":5126,"count":2756,"type":"VEC2"}],"bufferViews":[{"buffer":0,"byteOffset":0,"byteLength":55440,"target":34963},{"buffer":0,"byteOffset":55440,"byteLength":33072,"target":34962},{"buffer":0,"byteOffset":88512,"byteLength":33072,"target":34962},{"buffer":0,"byteOffset":121584,"byteLength":22048,"target":34962},{"buffer":0,"byteOffset":143632,"byteLength":55440,"target":34963},{"buffer":0,"byteOffset":199072,"byteLength":33072,"target":34962},{"buffer":0,"byteOffset":232144,"byteLength":33072,"target":34962},{"buffer":0,"byteOffset":265216,"byteLength":22048,"target":34962}],"scene":0,"scenes":[{"nodes":[0,1],"name":"Project Name"}],"extensionsUsed":["KHR_texture_transform"],"buffers":[{"byteLength":287264,"uri":"ProjectName.bin"}]}