{
  "asset": {
    "version": "2.0",
    "generator": "THREE.GLTFExporter"
  },
  "scenes": [
    {
      "nodes": [
        0,
        1,
        2,
        3,
        7
      ],
      "name": "Scene"
    }
  ],
  "scene": 0,
  "nodes": [
    {
      "matrix": [
        1,
        0,
        0,
        0,
        0,
        1,
        0,
        0,
        0,
        0,
        1,
        0,
        -2.9802322387695312e-8,
        0.8141231536865234,
        -0.06090736389160156,
        1
      ],
      "name": "Seat",
      "mesh": 0
    },
    {
      "matrix": [
        1,
        0,
        0,
        0,
        0,
        1,
        0,
        0,
        0,
        0,
        1,
        0,
        -2.0053450763197377e-16,
        0.9105331897735596,
        0.0808100700378418,
        1
      ],
      "name": "Seat_cushion",
      "mesh": 1
    },
    {
      "matrix": [
        1,
        0,
        0,
        0,
        0,
        1,
        0,
        0,
        0,
        0,
        1,
        0,
        0,
        0.0074059367179870605,
        1.1920928955078125e-7,
        1
      ],
      "name": "Back",
      "mesh": 2
    },
    {
      "matrix": [
        1,
        0,
        0,
        0,
        0,
        1,
        0,
        0,
        0,
        0,
        1,
        0,
        0,
        0.0074059367179870605,
        1.1920928955078125e-7,
        1
      ],
      "name": "Arms",
      "mesh": 3
    },
    {
      "matrix": [
        1,
        0,
        0,
        0,
        0,
        1,
        0,
        0,
        0,
        0,
        1,
        0,
        0,
        0.0074059441685676575,
        1.1920928955078125e-7,
        1
      ],
      "name": "Legs",
      "mesh": 4
    },
    {
      "matrix": [
        1,
        0,
        0,
        0,
        0,
        1,
        0,
        0,
        0,
        0,
        1,
        0,
        0,
        0.0074059441685676575,
        1.1920928955078125e-7,
        1
      ],
      "name": "Front_leg_studs",
      "mesh": 5
    },
    {
      "matrix": [
        1,
        0,
        0,
        0,
        0,
        1,
        0,
        0,
        0,
        0,
        1,
        0,
        0,
        0.0074059441685676575,
        1.1920928955078125e-7,
        1
      ],
      "name": "Back_leg_studs",
      "mesh": 6
    },
    {
      "children": [
        4,
        5,
        6
      ]
    }
  ],
  "bufferViews": [
    {
      "buffer": 0,
      "byteOffset": 0,
      "byteLength": 24636,
      "target": 34962,
      "byteStride": 12
    },
    {
      "buffer": 0,
      "byteOffset": 24636,
      "byteLength": 24636,
      "target": 34962,
      "byteStride": 12
    },
    {
      "buffer": 0,
      "byteOffset": 49272,
      "byteLength": 23808,
      "target": 34963
    },
    {
      "buffer": 0,
      "byteOffset": 73080,
      "byteLength": 103020,
      "target": 34962,
      "byteStride": 12
    },
    {
      "buffer": 0,
      "byteOffset": 176100,
      "byteLength": 103020,
      "target": 34962,
      "byteStride": 12
    },
    {
      "buffer": 0,
      "byteOffset": 279120,
      "byteLength": 68680,
      "target": 34962,
      "byteStride": 8
    },
    {
      "buffer": 0,
      "byteOffset": 347800,
      "byteLength": 100608,
      "target": 34963
    },
    {
      "buffer": 0,
      "byteOffset": 448408,
      "byteLength": 207444,
      "target": 34962,
      "byteStride": 12
    },
    {
      "buffer": 0,
      "byteOffset": 655852,
      "byteLength": 207444,
      "target": 34962,
      "byteStride": 12
    },
    {
      "buffer": 0,
      "byteOffset": 863296,
      "byteLength": 138296,
      "target": 34962,
      "byteStride": 8
    },
    {
      "buffer": 0,
      "byteOffset": 1001592,
      "byteLength": 203904,
      "target": 34963
    },
    {
      "buffer": 0,
      "byteOffset": 1205496,
      "byteLength": 186432,
      "target": 34962,
      "byteStride": 12
    },
    {
      "buffer": 0,
      "byteOffset": 1391928,
      "byteLength": 186432,
      "target": 34962,
      "byteStride": 12
    },
    {
      "buffer": 0,
      "byteOffset": 1578360,
      "byteLength": 185088,
      "target": 34963
    },
    {
      "buffer": 0,
      "byteOffset": 1763448,
      "byteLength": 129024,
      "target": 34962,
      "byteStride": 12
    },
    {
      "buffer": 0,
      "byteOffset": 1892472,
      "byteLength": 129024,
      "target": 34962,
      "byteStride": 12
    },
    {
      "buffer": 0,
      "byteOffset": 2021496,
      "byteLength": 126720,
      "target": 34963
    },
    {
      "buffer": 0,
      "byteOffset": 2148216,
      "byteLength": 19584,
      "target": 34962,
      "byteStride": 12
    },
    {
      "buffer": 0,
      "byteOffset": 2167800,
      "byteLength": 19584,
      "target": 34962,
      "byteStride": 12
    },
    {
      "buffer": 0,
      "byteOffset": 2187384,
      "byteLength": 18432,
      "target": 34963
    },
    {
      "buffer": 0,
      "byteOffset": 2205816,
      "byteLength": 19584,
      "target": 34962,
      "byteStride": 12
    },
    {
      "buffer": 0,
      "byteOffset": 2225400,
      "byteLength": 19584,
      "target": 34962,
      "byteStride": 12
    },
    {
      "buffer": 0,
      "byteOffset": 2244984,
      "byteLength": 18432,
      "target": 34963
    }
  ],
  "buffers": [
    {
      "byteLength": 2263416,
      "uri": "data:application/octet-stream;base64,"
    }
  ],
  "accessors": [
    {
      "bufferView": 0,
      "componentType": 5126,
      "count": 2053,
      "max": [
        1,
        0.35273292660713196,
        1
      ],
      "min": [
        -1,
        -0.999969482421875,
        -0.9963682889938354
      ],
      "type": "VEC3"
    },
    {
      "bufferView": 1,
      "componentType": 5126,
      "count": 2053,
      "max": [
        0.496881365776062,
        0.06866493821144104,
        0.45690178871154785
      ],
      "min": [
        -0.496881365776062,
        -0.05961671471595764,
        -0.46171867847442627
      ],
      "type": "VEC3"
    },
    {
      "bufferView": 2,
      "componentType": 5123,
      "count": 11904,
      "max": [
        2052
      ],
      "min": [
        0
      ],
      "type": "SCALAR"
    },
    {
      "bufferView": 3,
      "componentType": 5126,
      "count": 8585,
      "max": [
        0.999969482421875,
        0.999969482421875,
        0.999969482421875
      ],
      "min": [
        -0.999969482421875,
        -0.999786376953125,
        -0.999969482421875
      ],
      "type": "VEC3"
    },
    {
      "bufferView": 4,
      "componentType": 5126,
      "count": 8585,
      "max": [
        0.5186662077903748,
        0.010889606550335884,
        0.3356982469558716
      ],
      "min": [
        -0.5186662077903748,
        -0.13470160961151123,
        -0.6239489316940308
      ],
      "type": "VEC3"
    },
    {
      "bufferView": 5,
      "componentType": 5126,
      "count": 8585,
      "max": [
        3.4942314624786377,
        3.857095956802368
      ],
      "min": [
        -2.593305826187134,
        -2.854393482208252
      ],
      "type": "VEC2"
    },
    {
      "bufferView": 6,
      "componentType": 5123,
      "count": 50304,
      "max": [
        8584
      ],
      "min": [
        0
      ],
      "type": "SCALAR"
    },
    {
      "bufferView": 7,
      "componentType": 5126,
      "count": 17287,
      "max": [
        0.99993896484375,
        0.999847412109375,
        0.999969482421875
      ],
      "min": [
        -0.99993896484375,
        -0.999969482421875,
        -0.999969482421875
      ],
      "type": "VEC3"
    },
    {
      "bufferView": 8,
      "componentType": 5126,
      "count": 17287,
      "max": [
        0.5044856071472168,
        1.609628438949585,
        0.5389021635055542
      ],
      "min": [
        -0.5044856071472168,
        0.8764765858650208,
        0.252206027507782
      ],
      "type": "VEC3"
    },
    {
      "bufferView": 9,
      "componentType": 5126,
      "count": 17287,
      "max": [
        0.76838219165802,
        0.9999123811721802
      ],
      "min": [
        0.00008764473750488833,
        0.00008755922317504883
      ],
      "type": "VEC2"
    },
    {
      "bufferView": 10,
      "componentType": 5123,
      "count": 101952,
      "max": [
        17286
      ],
      "min": [
        0
      ],
      "type": "SCALAR"
    },
    {
      "bufferView": 11,
      "componentType": 5126,
      "count": 15536,
      "max": [
        0.999969482421875,
        0.999969482421875,
        0.999114990234375
      ],
      "min": [
        -0.999969482421875,
        -0.999969482421875,
        -0.99969482421875
      ],
      "type": "VEC3"
    },
    {
      "bufferView": 12,
      "componentType": 5126,
      "count": 15536,
      "max": [
        0.5641654133796692,
        1.3446524143218994,
        0.30736082792282104
      ],
      "min": [
        -0.5641654133796692,
        0.8707678914070129,
        -0.49371886253356934
      ],
      "type": "VEC3"
    },
    {
      "bufferView": 13,
      "componentType": 5123,
      "count": 92544,
      "max": [
        15535
      ],
      "min": [
        0
      ],
      "type": "SCALAR"
    },
    {
      "bufferView": 14,
      "componentType": 5126,
      "count": 10752,
      "max": [
        0.999969482421875,
        0.999969482421875,
        0.999664306640625
      ],
      "min": [
        -0.999969482421875,
        -1,
        -0.99993896484375
      ],
      "type": "VEC3"
    },
    {
      "bufferView": 15,
      "componentType": 5126,
      "count": 10752,
      "max": [
        0.5120671391487122,
        0.8831948041915894,
        0.4815734624862671
      ],
      "min": [
        -0.5120645761489868,
        0.004859447479248047,
        -0.526787519454956
      ],
      "type": "VEC3"
    },
    {
      "bufferView": 16,
      "componentType": 5123,
      "count": 63360,
      "max": [
        10751
      ],
      "min": [
        0
      ],
      "type": "SCALAR"
    },
    {
      "bufferView": 17,
      "componentType": 5126,
      "count": 1632,
      "max": [
        1,
        0.000030518509447574615,
        1
      ],
      "min": [
        -1,
        -0.4692220687866211,
        -1
      ],
      "type": "VEC3"
    },
    {
      "bufferView": 18,
      "componentType": 5126,
      "count": 1632,
      "max": [
        0.5106523036956787,
        0.006077292375266552,
        -0.4835018217563629
      ],
      "min": [
        -0.5106523036956787,
        -0.00695393281057477,
        -0.525426983833313
      ],
      "type": "VEC3"
    },
    {
      "bufferView": 19,
      "componentType": 5123,
      "count": 9216,
      "max": [
        1631
      ],
      "min": [
        0
      ],
      "type": "SCALAR"
    },
    {
      "bufferView": 20,
      "componentType": 5126,
      "count": 1632,
      "max": [
        1,
        0.46397289633750916,
        1
      ],
      "min": [
        -1,
        0,
        -1
      ],
      "type": "VEC3"
    },
    {
      "bufferView": 21,
      "componentType": 5126,
      "count": 1632,
      "max": [
        0.5017176866531372,
        0.006086939945816994,
        0.48026084899902344
      ],
      "min": [
        -0.5017176866531372,
        -0.006936151068657637,
        0.43981122970581055
      ],
      "type": "VEC3"
    },
    {
      "bufferView": 22,
      "componentType": 5123,
      "count": 9216,
      "max": [
        1631
      ],
      "min": [
        0
      ],
      "type": "SCALAR"
    }
  ],
  "materials": [
    {
      "pbrMetallicRoughness": {
        "metallicFactor": 1,
        "roughnessFactor": 1
      },
      "doubleSided": true
    },
    {
      "pbrMetallicRoughness": {
        "baseColorFactor": [
          0.16690951585769653,
          0.5211246013641357,
          0.0799189954996109,
          1
        ],
        "metallicFactor": 0,
        "roughnessFactor": 1
      },
      "doubleSided": true,
      "name": "Material"
    },
    {
      "pbrMetallicRoughness": {
        "metallicFactor": 1,
        "roughnessFactor": 1
      },
      "doubleSided": true
    },
    {
      "pbrMetallicRoughness": {
        "metallicFactor": 1,
        "roughnessFactor": 1
      },
      "doubleSided": true
    },
    {
      "pbrMetallicRoughness": {
        "baseColorFactor": [
          0.2605268657207489,
          0.2605268657207489,
          0.2605268657207489,
          1
        ],
        "metallicFactor": 0,
        "roughnessFactor": 1
      },
      "doubleSided": true,
      "name": "legs"
    },
    {
      "pbrMetallicRoughness": {
        "baseColorFactor": [
          0.64000004529953,
          0.64000004529953,
          0.64000004529953,
          1
        ],
        "metallicFactor": 0,
        "roughnessFactor": 1
      },
      "doubleSided": true,
      "name": "under-leg"
    }
  ],
  "meshes": [
    {
      "primitives": [
        {
          "mode": 4,
          "attributes": {
            "NORMAL": 0,
            "POSITION": 1
          },
          "indices": 2,
          "material": 0
        }
      ]
    },
    {
      "primitives": [
        {
          "mode": 4,
          "attributes": {
            "NORMAL": 3,
            "POSITION": 4,
            "TEXCOORD_0": 5
          },
          "indices": 6,
          "material": 1
        }
      ]
    },
    {
      "primitives": [
        {
          "mode": 4,
          "attributes": {
            "NORMAL": 7,
            "POSITION": 8,
            "TEXCOORD_0": 9
          },
          "indices": 10,
          "material": 2
        }
      ]
    },
    {
      "primitives": [
        {
          "mode": 4,
          "attributes": {
            "NORMAL": 11,
            "POSITION": 12
          },
          "indices": 13,
          "material": 3
        }
      ]
    },
    {
      "primitives": [
        {
          "mode": 4,
          "attributes": {
            "NORMAL": 14,
            "POSITION": 15
          },
          "indices": 16,
          "material": 4
        }
      ]
    },
    {
      "primitives": [
        {
          "mode": 4,
          "attributes": {
            "NORMAL": 17,
            "POSITION": 18
          },
          "indices": 19,
          "material": 5
        }
      ]
    },
    {
      "primitives": [
        {
          "mode": 4,
          "attributes": {
            "NORMAL": 20,
            "POSITION": 21
          },
          "indices": 22,
          "material": 5
        }
      ]
    }
  ]
}